<svg width="569" height="992" viewBox="0 0 569 992" fill="none" xmlns="http://www.w3.org/2000/svg"><g filter="url(#a)" fill-rule="evenodd" clip-rule="evenodd"><path d="M59.17 943.713a3.72 3.72 0 0 0-3.365-4.044l-7.408-.681.68-7.409a3.72 3.72 0 0 0-7.408-.681l-.681 7.409-7.409-.681a3.72 3.72 0 1 0-.68 7.409l7.408.681-.68 7.408a3.72 3.72 0 1 0 7.408.681l.68-7.408 7.41.68a3.72 3.72 0 0 0 4.044-3.364Z" fill="#A9C1ED"/><path d="M514.5 33c9.113 0 16.5-7.387 16.5-16.5S523.613 0 514.5 0 498 7.387 498 16.5 505.387 33 514.5 33Zm0-6.6c5.468 0 9.9-4.432 9.9-9.9s-4.432-9.9-9.9-9.9-9.9 4.432-9.9 9.9 4.432 9.9 9.9 9.9ZM86.102 618.089c27.996-6.465 45.451-34.401 38.987-62.397-6.465-27.996-34.4-45.451-62.397-38.987-27.996 6.465-45.451 34.401-38.987 62.397 6.465 27.996 34.4 45.451 62.397 38.987Zm-4.682-20.277c16.798-3.879 27.271-20.64 23.392-37.438-3.879-16.798-20.64-27.271-37.438-23.392-16.798 3.879-27.27 20.64-23.392 37.438 3.879 16.798 20.64 27.271 37.438 23.392ZM191 734a8 8 0 1 0 0-16 8 8 0 0 0 0 16Zm0-3.2a4.8 4.8 0 1 0 0-9.6 4.8 4.8 0 0 0 0 9.6Z" fill="#F8C2EB"/><path d="M353.487 447.787c4.772-5.283 4.358-13.434-.925-18.206L333.431 412.3l17.281-19.132c4.772-5.283 4.358-13.434-.925-18.206-5.283-4.772-13.434-4.357-18.206.926L314.3 395.019l-19.132-17.281c-5.283-4.772-13.434-4.358-18.206.925-4.772 5.283-4.357 13.434.925 18.206l19.132 17.281-17.281 19.131c-4.772 5.283-4.358 13.434.925 18.206 5.283 4.772 13.434 4.358 18.206-.925l17.281-19.131 19.131 17.281c5.283 4.772 13.434 4.358 18.206-.925ZM22.016 297.106a3.72 3.72 0 0 0 1.273-5.104l-3.833-6.378 6.378-3.832a3.72 3.72 0 1 0-3.832-6.377l-6.378 3.832-3.832-6.377a3.72 3.72 0 1 0-6.377 3.832l3.832 6.377-6.377 3.832a3.72 3.72 0 0 0 3.832 6.377l6.377-3.832 3.832 6.378a3.72 3.72 0 0 0 5.105 1.272Z" fill="#A9C1ED"/></g><defs><filter id="a" x="1.066" y="0" width="567.934" height="991.185" filterUnits="userSpaceOnUse" color-interpolation-filters="sRGB"><feFlood flood-opacity="0" result="BackgroundImageFix"/><feColorMatrix in="SourceAlpha" values="0 0 0 0 0 0 0 0 0 0 0 0 0 0 0 0 0 0 127 0" result="hardAlpha"/><feOffset dx="25" dy="21"/><feGaussianBlur stdDeviation="6.5"/><feComposite in2="hardAlpha" operator="out"/><feColorMatrix values="0 0 0 0 0.364583 0 0 0 0 0.441895 0 0 0 0 0.625 0 0 0 0.5 0"/><feBlend mode="multiply" in2="BackgroundImageFix" result="effect1_dropShadow_16_7"/><feBlend in="SourceGraphic" in2="effect1_dropShadow_16_7" result="shape"/><feColorMatrix in="SourceAlpha" values="0 0 0 0 0 0 0 0 0 0 0 0 0 0 0 0 0 0 127 0" result="hardAlpha"/><feOffset dx="5" dy="9"/><feGaussianBlur stdDeviation="2.5"/><feComposite in2="hardAlpha" operator="arithmetic" k2="-1" k3="1"/><feColorMatrix values="0 0 0 0 1 0 0 0 0 0.883333 0 0 0 0 0.980952 0 0 0 1 0"/><feBlend mode="screen" in2="shape" result="effect2_innerShadow_16_7"/></filter></defs></svg>