<svg width="529" height="1096" viewBox="0 0 529 1096" fill="none" xmlns="http://www.w3.org/2000/svg"><g filter="url(#a)" fill-rule="evenodd" clip-rule="evenodd"><path d="M417.271 20.616a8.658 8.658 0 0 0 4.337 11.45l15.787 7.114-7.114 15.786a8.658 8.658 0 0 0 15.787 7.114l7.113-15.787 15.787 7.113a8.657 8.657 0 1 0 7.113-15.787l-15.786-7.113 7.113-15.787a8.658 8.658 0 0 0-15.787-7.113l-7.113 15.787-15.787-7.113a8.658 8.658 0 0 0-11.45 4.336Z" fill="#A9C1ED"/><path d="M137.501 1062c25.681 0 46.5-20.82 46.5-46.5 0-25.681-20.819-46.5-46.5-46.5s-46.5 20.819-46.5 46.5c0 25.68 20.819 46.5 46.5 46.5Zm0-18.6c15.409 0 27.9-12.49 27.9-27.9 0-15.41-12.491-27.9-27.9-27.9-15.409 0-27.9 12.49-27.9 27.9 0 15.41 12.491 27.9 27.9 27.9ZM25 359c13.807 0 25-11.193 25-25s-11.193-25-25-25-25 11.193-25 25 11.193 25 25 25Zm0-10c8.284 0 15-6.716 15-15 0-8.284-6.716-15-15-15-8.284 0-15 6.716-15 15 0 8.284 6.716 15 15 15Z" fill="#F8C2EB"/><path d="M490.169 776.713a3.72 3.72 0 0 0-3.364-4.044l-7.408-.681.68-7.409a3.72 3.72 0 1 0-7.408-.681l-.681 7.409-7.409-.681a3.72 3.72 0 0 0-.681 7.409l7.409.681-.681 7.408a3.72 3.72 0 1 0 7.409.681l.681-7.408 7.409.68a3.72 3.72 0 0 0 4.044-3.364Z" fill="#A9C1ED"/><path d="M142.102 821.089c27.996-6.465 45.451-34.401 38.987-62.397-6.465-27.997-34.401-45.451-62.397-38.987-27.996 6.465-45.451 34.401-38.987 62.397 6.465 27.996 34.401 45.451 62.397 38.987Zm-4.682-20.277c16.798-3.879 27.271-20.64 23.392-37.438-3.879-16.798-20.64-27.271-37.438-23.392-16.798 3.879-27.27 20.64-23.392 37.438 3.879 16.798 20.64 27.271 37.438 23.392Z" fill="#F8C2EB"/><path d="M405.425 387.71c-2.496-7.543-10.635-11.634-18.178-9.137l-27.317 9.041-9.041-27.316c-2.497-7.543-10.636-11.634-18.179-9.138-7.543 2.497-11.634 10.636-9.137 18.179l9.041 27.316-27.316 9.042c-7.543 2.496-11.634 10.635-9.138 18.179 2.497 7.543 10.636 11.634 18.179 9.137l27.316-9.041 9.042 27.316c2.497 7.543 10.635 11.634 18.179 9.137 7.543-2.496 11.634-10.635 9.137-18.178l-9.041-27.317 27.316-9.041c7.543-2.497 11.634-10.636 9.137-18.179Z" fill="#A9C1ED"/></g><defs><filter id="a" x="0" y="2.503" width="528.185" height="1093.5" filterUnits="userSpaceOnUse" color-interpolation-filters="sRGB"><feFlood flood-opacity="0" result="BackgroundImageFix"/><feColorMatrix in="SourceAlpha" values="0 0 0 0 0 0 0 0 0 0 0 0 0 0 0 0 0 0 127 0" result="hardAlpha"/><feOffset dx="25" dy="21"/><feGaussianBlur stdDeviation="6.5"/><feComposite in2="hardAlpha" operator="out"/><feColorMatrix values="0 0 0 0 0.364583 0 0 0 0 0.441895 0 0 0 0 0.625 0 0 0 0.5 0"/><feBlend mode="multiply" in2="BackgroundImageFix" result="effect1_dropShadow_16_8"/><feBlend in="SourceGraphic" in2="effect1_dropShadow_16_8" result="shape"/><feColorMatrix in="SourceAlpha" values="0 0 0 0 0 0 0 0 0 0 0 0 0 0 0 0 0 0 127 0" result="hardAlpha"/><feOffset dx="5" dy="9"/><feGaussianBlur stdDeviation="2.5"/><feComposite in2="hardAlpha" operator="arithmetic" k2="-1" k3="1"/><feColorMatrix values="0 0 0 0 1 0 0 0 0 0.883333 0 0 0 0 0.980952 0 0 0 1 0"/><feBlend mode="screen" in2="shape" result="effect2_innerShadow_16_8"/></filter></defs></svg>