<svg width="406" height="933" viewBox="0 0 406 933" fill="none" xmlns="http://www.w3.org/2000/svg"><g filter="url(#a)" fill-rule="evenodd" clip-rule="evenodd"><path d="M289.319 412.306c-5.794-1.387-11.615 2.185-13.003 7.979l-5.025 20.981-20.981-5.025c-5.794-1.387-11.615 2.185-13.003 7.978-1.387 5.794 2.185 11.616 7.978 13.003l20.982 5.025-5.025 20.981c-1.388 5.794 2.184 11.616 7.978 13.003 5.794 1.388 11.615-2.184 13.003-7.978l5.025-20.981 20.981 5.025c5.794 1.387 11.615-2.185 13.003-7.979 1.388-5.793-2.184-11.615-7.978-13.003l-20.981-5.024 5.024-20.982c1.388-5.793-2.184-11.615-7.978-13.003Z" fill="#A9C1ED"/><path d="M54 709c15.464 0 28-12.536 28-28s-12.536-28-28-28-28 12.536-28 28 12.536 28 28 28Zm0-11.2c9.278 0 16.8-7.522 16.8-16.8s-7.522-16.8-16.8-16.8-16.8 7.522-16.8 16.8 7.522 16.8 16.8 16.8ZM307.001 56c15.464 0 28-12.536 28-28s-12.536-28-28-28-28 12.536-28 28 12.536 28 28 28Zm0-11.2c9.278 0 16.8-7.521 16.8-16.8 0-9.278-7.522-16.8-16.8-16.8-9.279 0-16.8 7.522-16.8 16.8 0 9.279 7.521 16.8 16.8 16.8ZM8 454a8 8 0 1 0 0-16 8 8 0 0 0 0 16Zm0-3.2a4.8 4.8 0 1 0 0-9.6 4.8 4.8 0 0 0 0 9.6ZM360 899a8 8 0 1 0 0-16 8 8 0 0 0 0 16Zm0-3.2a4.8 4.8 0 1 0 0-9.6 4.8 4.8 0 0 0 0 9.6Z" fill="#F8C2EB"/><path d="M277.169 225.713a3.72 3.72 0 0 0-3.364-4.044l-7.408-.681.68-7.409a3.72 3.72 0 1 0-7.408-.681l-.681 7.409-7.409-.681a3.72 3.72 0 1 0-.681 7.409l7.409.681-.681 7.408a3.72 3.72 0 1 0 7.409.681l.681-7.408 7.408.68a3.72 3.72 0 0 0 4.045-3.364Zm-93.251 339.125a3.72 3.72 0 0 0-5.02-1.574l-6.594 3.447-3.446-6.594a3.72 3.72 0 0 0-6.594 3.446l3.447 6.594-6.594 3.446a3.72 3.72 0 0 0 3.446 6.594l6.594-3.446 3.446 6.593a3.72 3.72 0 0 0 6.594-3.446l-3.446-6.594 6.593-3.446a3.72 3.72 0 0 0 1.574-5.02Z" fill="#A9C1ED"/></g><defs><filter id="a" x="0" y="0" width="406" height="933" filterUnits="userSpaceOnUse" color-interpolation-filters="sRGB"><feFlood flood-opacity="0" result="BackgroundImageFix"/><feColorMatrix in="SourceAlpha" values="0 0 0 0 0 0 0 0 0 0 0 0 0 0 0 0 0 0 127 0" result="hardAlpha"/><feOffset dx="25" dy="21"/><feGaussianBlur stdDeviation="6.5"/><feComposite in2="hardAlpha" operator="out"/><feColorMatrix values="0 0 0 0 0.364583 0 0 0 0 0.441895 0 0 0 0 0.625 0 0 0 0.5 0"/><feBlend mode="multiply" in2="BackgroundImageFix" result="effect1_dropShadow_16_9"/><feBlend in="SourceGraphic" in2="effect1_dropShadow_16_9" result="shape"/><feColorMatrix in="SourceAlpha" values="0 0 0 0 0 0 0 0 0 0 0 0 0 0 0 0 0 0 127 0" result="hardAlpha"/><feOffset dx="5" dy="9"/><feGaussianBlur stdDeviation="2.5"/><feComposite in2="hardAlpha" operator="arithmetic" k2="-1" k3="1"/><feColorMatrix values="0 0 0 0 1 0 0 0 0 0.883333 0 0 0 0 0.980952 0 0 0 1 0"/><feBlend mode="screen" in2="shape" result="effect2_innerShadow_16_9"/></filter></defs></svg>