<svg width="722" height="1283" viewBox="0 0 722 1283" fill="none" xmlns="http://www.w3.org/2000/svg"><g filter="url(#a)" fill-rule="evenodd" clip-rule="evenodd"><path d="M170 268c66.274 0 120-53.726 120-120S236.274 28 170 28 50 81.726 50 148s53.726 120 120 120Zm0-48c39.765 0 72-32.235 72-72 0-39.764-32.235-72-72-72-39.764 0-72 32.236-72 72 0 39.765 32.236 72 72 72Z" fill="#F8C2EB"/><path d="M342.349 599.37c-26.829-6.538-53.879 9.911-60.417 36.74l-35.515 145.738-145.738-35.515c-26.829-6.538-53.878 9.911-60.416 36.74l-7.893 32.388c-6.538 26.829 9.911 53.879 36.74 60.417l145.738 35.515-35.515 145.737c-6.538 26.83 9.911 53.88 36.74 60.42l32.388 7.89c26.829 6.54 53.879-9.91 60.417-36.74l35.515-145.738 145.739 35.515c26.829 6.538 53.878-9.911 60.416-36.74l7.893-32.388c6.538-26.829-9.911-53.879-36.74-60.417l-145.739-35.515 35.515-145.738c6.538-26.829-9.911-53.879-36.741-60.417l-32.387-7.892Z" fill="#A9C1ED"/></g><defs><filter id="a" x="8.937" y="0" width="712.937" height="1282.87" filterUnits="userSpaceOnUse" color-interpolation-filters="sRGB"><feFlood flood-opacity="0" result="BackgroundImageFix"/><feColorMatrix in="SourceAlpha" values="0 0 0 0 0 0 0 0 0 0 0 0 0 0 0 0 0 0 127 0" result="hardAlpha"/><feOffset dx="70" dy="64"/><feGaussianBlur stdDeviation="46"/><feComposite in2="hardAlpha" operator="out"/><feColorMatrix values="0 0 0 0 0.364583 0 0 0 0 0.441895 0 0 0 0 0.625 0 0 0 0.4 0"/><feBlend mode="multiply" in2="BackgroundImageFix" result="effect1_dropShadow_16_6"/><feBlend in="SourceGraphic" in2="effect1_dropShadow_16_6" result="shape"/><feColorMatrix in="SourceAlpha" values="0 0 0 0 0 0 0 0 0 0 0 0 0 0 0 0 0 0 127 0" result="hardAlpha"/><feOffset dx="24" dy="23"/><feGaussianBlur stdDeviation="7"/><feComposite in2="hardAlpha" operator="arithmetic" k2="-1" k3="1"/><feColorMatrix values="0 0 0 0 1 0 0 0 0 0.883333 0 0 0 0 0.980952 0 0 0 1 0"/><feBlend mode="screen" in2="shape" result="effect2_innerShadow_16_6"/></filter></defs></svg>