<svg width="718" height="1248" viewBox="0 0 718 1248" fill="none" xmlns="http://www.w3.org/2000/svg"><g filter="url(#a)" fill-rule="evenodd" clip-rule="evenodd"><path d="M223 430c111.009 0 201-89.991 201-201S334.009 28 223 28 22 117.991 22 229s89.991 201 201 201Zm0-80.4c66.606 0 120.6-53.994 120.6-120.6S289.606 108.4 223 108.4 102.4 162.394 102.4 229 156.394 349.6 223 349.6Z" fill="#F8C2EB"/><path d="M553.942 870.991c-5.817-24.413-30.324-39.488-54.738-33.67l-88.408 21.067-21.067-88.408c-5.818-24.413-30.325-39.488-54.738-33.67-24.413 5.818-39.488 30.325-33.67 54.738l21.067 88.408-88.408 21.067c-24.413 5.818-39.488 30.325-33.67 54.738 5.818 24.414 30.325 39.488 54.738 33.671l88.408-21.068 21.068 88.406c5.817 24.42 30.324 39.49 54.737 33.67 24.414-5.82 39.488-30.32 33.671-54.74l-21.068-88.404 88.408-21.067c24.413-5.818 39.488-30.325 33.67-54.738Z" fill="#A9C1ED"/></g><defs><filter id="a" x="0" y="0" width="717.19" height="1247.19" filterUnits="userSpaceOnUse" color-interpolation-filters="sRGB"><feFlood flood-opacity="0" result="BackgroundImageFix"/><feColorMatrix in="SourceAlpha" values="0 0 0 0 0 0 0 0 0 0 0 0 0 0 0 0 0 0 127 0" result="hardAlpha"/><feOffset dx="70" dy="64"/><feGaussianBlur stdDeviation="46"/><feComposite in2="hardAlpha" operator="out"/><feColorMatrix values="0 0 0 0 0.364583 0 0 0 0 0.441895 0 0 0 0 0.625 0 0 0 0.4 0"/><feBlend mode="multiply" in2="BackgroundImageFix" result="effect1_dropShadow_16_5"/><feBlend in="SourceGraphic" in2="effect1_dropShadow_16_5" result="shape"/><feColorMatrix in="SourceAlpha" values="0 0 0 0 0 0 0 0 0 0 0 0 0 0 0 0 0 0 127 0" result="hardAlpha"/><feOffset dx="24" dy="23"/><feGaussianBlur stdDeviation="7"/><feComposite in2="hardAlpha" operator="arithmetic" k2="-1" k3="1"/><feColorMatrix values="0 0 0 0 1 0 0 0 0 0.883333 0 0 0 0 0.980952 0 0 0 1 0"/><feBlend mode="screen" in2="shape" result="effect2_innerShadow_16_5"/></filter></defs></svg>