<svg width="519" height="517" viewBox="0 0 519 517" fill="none" xmlns="http://www.w3.org/2000/svg"><g filter="url(#a)" fill-rule="evenodd" clip-rule="evenodd" fill-opacity=".5"><path d="M335 0c5.523 0 10 4.477 10 10v145h145c5.523 0 10 4.477 10 10s-4.477 10-10 10H345v150h145c5.523 0 10 4.477 10 10s-4.477 10-10 10H345v145c0 5.523-4.477 10-10 10s-10-4.477-10-10V345H175v145c0 5.523-4.477 10-10 10s-10-4.477-10-10V345H10c-5.523 0-10-4.477-10-10s4.477-10 10-10h145V175H10c-5.523 0-10-4.477-10-10s4.477-10 10-10h145V10c0-5.523 4.477-10 10-10s10 4.477 10 10v145h150V10c0-5.523 4.477-10 10-10ZM175 175v150h150V175H175Z" fill="#AAC1ED"/><path d="M335 0c5.523 0 10 4.477 10 10v145h145c5.523 0 10 4.477 10 10s-4.477 10-10 10H345v150h145c5.523 0 10 4.477 10 10s-4.477 10-10 10H345v145c0 5.523-4.477 10-10 10s-10-4.477-10-10V345H175v145c0 5.523-4.477 10-10 10s-10-4.477-10-10V345H10c-5.523 0-10-4.477-10-10s4.477-10 10-10h145V175H10c-5.523 0-10-4.477-10-10s4.477-10 10-10h145V10c0-5.523 4.477-10 10-10s10 4.477 10 10v145h150V10c0-5.523 4.477-10 10-10ZM175 175v150h150V175H175Z" fill="#F4C2EB"/></g><defs><filter id="a" x="0" y="0" width="519" height="517" filterUnits="userSpaceOnUse" color-interpolation-filters="sRGB"><feFlood flood-opacity="0" result="BackgroundImageFix"/><feColorMatrix in="SourceAlpha" values="0 0 0 0 0 0 0 0 0 0 0 0 0 0 0 0 0 0 127 0" result="hardAlpha"/><feOffset dx="14" dy="12"/><feGaussianBlur stdDeviation="2.5"/><feComposite in2="hardAlpha" operator="out"/><feColorMatrix values="0 0 0 0 0.364583 0 0 0 0 0.441895 0 0 0 0 0.625 0 0 0 0.5 0"/><feBlend in2="BackgroundImageFix" result="effect1_dropShadow_5_28"/><feBlend in="SourceGraphic" in2="effect1_dropShadow_5_28" result="shape"/><feColorMatrix in="SourceAlpha" values="0 0 0 0 0 0 0 0 0 0 0 0 0 0 0 0 0 0 127 0" result="hardAlpha"/><feOffset dx="10" dy="8"/><feGaussianBlur stdDeviation="3"/><feComposite in2="hardAlpha" operator="arithmetic" k2="-1" k3="1"/><feColorMatrix values="0 0 0 0 1 0 0 0 0 0.883333 0 0 0 0 0.980952 0 0 0 1 0"/><feBlend in2="shape" result="effect2_innerShadow_5_28"/></filter></defs></svg>