<svg width="99" height="97" viewBox="0 0 99 97" fill="none" xmlns="http://www.w3.org/2000/svg"><g filter="url(#a)"><path fill-rule="evenodd" clip-rule="evenodd" d="M81.012 81.012c5.317-5.317 5.317-13.939 0-19.256L61.756 42.5l19.256-19.256c5.317-5.317 5.317-13.939 0-19.256s-13.939-5.317-19.256 0L42.5 23.244 23.244 3.988c-5.317-5.317-13.939-5.317-19.256 0s-5.317 13.939 0 19.256L23.244 42.5 3.988 61.756c-5.317 5.317-5.317 13.939 0 19.256s13.939 5.317 19.256 0L42.5 61.756l19.256 19.256c5.317 5.317 13.939 5.317 19.256 0Z" fill="#A9C1ED"/></g><defs><filter id="a" x="0" y="0" width="99" height="97" filterUnits="userSpaceOnUse" color-interpolation-filters="sRGB"><feFlood flood-opacity="0" result="BackgroundImageFix"/><feColorMatrix in="SourceAlpha" values="0 0 0 0 0 0 0 0 0 0 0 0 0 0 0 0 0 0 127 0" result="hardAlpha"/><feOffset dx="9" dy="7"/><feGaussianBlur stdDeviation="2.5"/><feComposite in2="hardAlpha" operator="out"/><feColorMatrix values="0 0 0 0 0.364583 0 0 0 0 0.441895 0 0 0 0 0.625 0 0 0 0.5 0"/><feBlend in2="BackgroundImageFix" result="effect1_dropShadow_7_5"/><feBlend in="SourceGraphic" in2="effect1_dropShadow_7_5" result="shape"/><feColorMatrix in="SourceAlpha" values="0 0 0 0 0 0 0 0 0 0 0 0 0 0 0 0 0 0 127 0" result="hardAlpha"/><feOffset dx="9" dy="4"/><feGaussianBlur stdDeviation="3.5"/><feComposite in2="hardAlpha" operator="arithmetic" k2="-1" k3="1"/><feColorMatrix values="0 0 0 0 1 0 0 0 0 0.883333 0 0 0 0 0.980952 0 0 0 1 0"/><feBlend in2="shape" result="effect2_innerShadow_7_5"/></filter></defs></svg>