<svg width="48" height="20" viewBox="0 0 48 20" fill="none" xmlns="http://www.w3.org/2000/svg">
<path d="M21.1084 17H26.3132C26.3132 12.9196 25.3298 10.1782 23.7108 7.77501C22.0919 10.1782 21.1084 12.9196 21.1084 17Z" fill="black"/>
<path d="M48 3.91319V0.037116C41.2596 -0.133069 28.9776 -0.0429053 23.7108 7.77501C25.3298 10.1782 26.3132 12.9196 26.3132 17C26.3132 5.72826 34.6988 3.91319 48 3.91319Z" fill="black"/>
<path d="M0 0.0371158V3.91319C13.3012 3.91319 21.1084 5.72826 21.1084 17C21.1084 12.9196 22.0919 10.1782 23.7108 7.77501C18.444 -0.0429053 6.74044 -0.133069 0 0.0371158Z" fill="black"/>
<path d="M26.3132 17H21.1084H15.0361V20H32.3855V17H26.3132Z" fill="black"/>
</svg>
