<svg width="1920" height="808" viewBox="0 0 1920 808" fill="none" xmlns="http://www.w3.org/2000/svg">
<path fill-rule="evenodd" clip-rule="evenodd" d="M10.5931 101.5C-44.3786 57.7282 -95.4946 20.8333 -139.5 0V500H2061.5V222C2050.69 222 2037.63 226.354 2022.89 231.266C2006.53 236.722 1988.09 242.867 1968.38 244.5C1945.87 246.364 1927.52 240.5 1909.76 234.825L1909.76 234.824C1905.38 233.425 1901.04 232.038 1896.68 230.78C1892.59 227.538 1887.38 225.165 1880.94 224.83C1873.43 224.44 1869.49 224.318 1867.69 224.335C1864 221.211 1857.2 212.312 1854.18 208.36L1853.88 207.967C1853.49 207.454 1853.03 206.892 1852.52 206.276L1852.51 206.268L1852.51 206.265C1849.12 202.164 1843.74 195.663 1844.27 184.922C1844.37 182.78 1844.55 180.486 1844.74 178.026L1844.74 178.022V178.016C1845.09 173.432 1845.48 168.271 1845.54 162.438H1914C1909.45 154.194 1895.16 137.706 1874.46 137.706C1865.44 137.706 1858.83 140.834 1854.11 145.046C1850.33 142.34 1846.48 138.707 1843 135.04C1842.96 134.857 1842.92 134.673 1842.89 134.49C1842.8 134.065 1842.71 133.638 1842.62 133.209H1892.36C1888.98 126.464 1878.39 112.974 1863.04 112.974C1856.47 112.974 1851.62 115.446 1848.14 118.802C1845.98 118.235 1843.91 117.507 1842.12 116.576C1840.02 115.49 1837.81 113.874 1835.68 112.079C1835.28 111.219 1834.88 110.393 1834.48 109.601H1862.3C1860.64 98.7342 1851.34 77 1827.42 77C1803.5 77 1787.01 98.7342 1781.75 109.601H1817.75C1817.83 110.117 1817.91 110.65 1818 111.208C1814.7 110.799 1809.58 110.426 1806.02 111.409C1804.52 111.821 1802.99 112.558 1801.51 113.46C1799.7 113.147 1797.73 112.974 1795.59 112.974C1779.53 112.974 1768.45 122.717 1764.91 127.588H1819.02C1818.15 123.786 1814.15 117.014 1804.8 114.226C1805.36 114.041 1805.92 113.887 1806.47 113.769C1810.05 112.998 1815.08 113.405 1818.43 113.834C1819.1 118.108 1819.94 123.983 1820.56 133.768C1815.28 132.121 1808.17 130.326 1803.41 130.783C1799.55 131.153 1795.82 133.135 1792.67 135.458C1792.63 135.458 1792.59 135.458 1792.55 135.458C1768.64 135.458 1752.14 146.699 1746.88 152.32H1821.58C1821.73 155.458 1821.82 158.199 1821.8 160.755C1815.62 159.804 1808.72 159.26 1803.54 160.29C1801.59 160.677 1799.64 161.336 1797.71 162.187C1790.98 160.279 1782.76 159.065 1772.81 159.065C1737.83 159.065 1713.69 174.054 1706 181.549H1818.3C1817.97 182.624 1817.61 183.745 1817.21 184.922C1813.11 197.195 1822.26 217.233 1832.43 232.356C1809.57 242.128 1798.44 259.813 1786.88 278.185C1775.95 295.543 1764.64 313.513 1742.69 326C1697.74 351.567 1655.31 346.933 1611.25 342.12C1574.15 338.067 1535.9 333.888 1493.99 347.5C1469.55 355.44 1449.81 360.7 1430.34 365.885C1408.69 371.652 1387.38 377.328 1360.34 386.5C1330.56 396.597 1307.26 412.49 1285.22 427.529C1250.06 451.514 1218.09 473.329 1168.06 466C1142.9 462.314 1126.78 452.979 1109.37 442.902C1097.96 436.292 1085.99 429.363 1070.56 423.5C1021.14 404.726 983.33 396.045 942.007 386.558C916.967 380.81 890.639 374.765 859.66 366C790.445 346.416 734.292 322.531 680.98 299.854C593.213 262.521 513.147 228.463 395.182 222.268C395.352 212.149 391.4 198.627 387.794 186.291C386.015 180.203 384.32 174.403 383.246 169.444C382.329 165.21 381.453 161.638 380.652 158.374C378.678 150.328 377.163 144.154 376.636 134.538C378.604 134.228 382.604 133.804 388.329 134.19C385.786 139.23 384.366 144.274 383.806 148.054H465C459.699 136.746 443.069 114.129 418.962 114.129C405.869 114.129 397.121 120.801 391.593 128.709C386.561 127.596 381.372 127.101 376.439 127.734C376.422 125.175 376.462 122.383 376.564 119.297C376.882 109.661 377.511 103.254 378.167 98.583L386.312 103.263C384.936 105.983 384.142 108.637 383.806 110.683H438.628C435.048 103.792 423.82 90.0099 407.543 90.0099C398.459 90.0099 392.473 94.3027 388.76 99.2947C385.146 97.2287 381.334 94.7177 379.05 93.1725C379.16 92.5683 379.268 91.9973 379.371 91.4514C379.95 88.378 380.38 86.0958 380.38 83.1189L424.922 83.1188C420.448 75.0792 406.413 59 386.067 59C365.721 59 357.808 75.0792 356.395 83.1188H373.202C371.164 88.4651 368.613 96.4155 366.787 106.42C364.298 106.359 361.473 106.113 359.298 105.435C358.105 105.062 356.874 104.486 355.659 103.792H366.674C365.685 96.901 360.147 83.1188 345.904 83.1188C331.662 83.1188 321.837 96.901 318.705 103.792H350.684C352.155 105.548 353.805 107.17 355.514 108.211C358.348 109.937 362.448 110.742 366.011 111.11C365.685 113.298 365.401 115.515 365.156 117.742C361.326 118.133 357.618 119.172 354.201 120.52C350.348 114.954 344.775 110.683 336.992 110.683C320.24 110.683 308.684 130.473 305 140.368H361.423C360.988 136.673 359.808 131.599 357.627 126.691C357.749 126.678 357.871 126.666 357.992 126.655L358.108 126.644C359.994 126.47 362.219 126.406 364.383 126.399C362.824 148.669 364.453 169.444 364.453 169.444C364.453 169.444 370.654 197.224 366.124 214.05C365.448 216.559 364.371 219.427 363.224 222.159C357.83 222.403 352.56 222.731 347.442 223.049C329.438 224.168 313.319 225.171 300.371 222C282.404 217.6 257.452 200.856 235.733 181C212.851 160.081 206.136 125.231 200.426 95.5977C194.71 65.9349 190.002 41.5 171.094 41.5C155.036 41.5 148.12 55.2681 140.845 69.7526C136.312 78.7754 131.641 88.0761 124.532 94.5C112.372 105.49 109.323 117.748 106.713 128.242C102.916 143.51 100.048 155.043 71.3972 153.5C50.8587 152.394 41.7869 139.703 31.6942 125.585C25.8246 117.374 19.6096 108.68 10.5931 101.5ZM1799.47 135.795C1809.74 136.838 1816.69 140.16 1821.12 143.783C1821.02 142.06 1820.92 140.228 1820.82 138.268C1820.82 138.157 1820.81 138.047 1820.8 137.936C1815.68 136.368 1809.37 134.804 1804.88 134.921C1803.09 134.969 1801.26 135.294 1799.47 135.795ZM1820.06 175.233C1820.82 172.081 1821.28 169.257 1821.54 166.404C1816.51 165.642 1811.17 165.163 1806.7 165.502C1812.94 168.421 1817.27 171.948 1820.06 175.233ZM1845.7 121.554C1843.83 124.032 1842.53 126.722 1841.7 129.15C1840.8 125.499 1839.73 122.11 1838.58 119.01C1839.24 119.398 1839.91 119.742 1840.56 120.033C1842.13 120.728 1843.87 121.219 1845.7 121.554ZM1849.9 149.696C1848.13 148.449 1846.37 147.014 1844.65 145.482C1845.17 149.901 1845.43 154.027 1845.51 157.882C1846.46 155.29 1847.89 152.429 1849.9 149.696Z" fill="url(#paint0_linear_48_680)"/>
<rect x="-140" y="482" width="2201" height="320" fill="white"/>
<g filter="url(#filter0_if_48_680)">
<path fill-rule="evenodd" clip-rule="evenodd" d="M10.5931 738.33C-44.3786 765.788 -95.4946 788.932 -139.5 802V481H2061.5V662.742C2050.69 662.742 2037.63 660.011 2022.89 656.93C2006.53 653.507 1988.09 649.652 1968.38 648.628C1945.87 647.459 1927.52 651.137 1909.76 654.697L1909.76 654.698C1905.38 655.575 1901.04 656.446 1896.68 657.234C1892.59 659.268 1887.38 660.757 1880.94 660.967C1873.43 661.212 1869.49 661.288 1867.69 661.277C1864 663.237 1857.2 668.82 1854.18 671.298L1853.88 671.545C1853.49 671.868 1853.02 672.222 1852.51 672.61L1852.51 672.612C1849.12 675.185 1843.74 679.263 1844.27 686.001C1844.37 687.345 1844.55 688.783 1844.74 690.326L1844.74 690.329C1845.09 693.205 1845.48 696.444 1845.54 700.105H1914C1909.45 705.276 1895.16 715.619 1874.46 715.619C1865.44 715.619 1858.83 713.657 1854.11 711.015C1850.33 712.712 1846.48 714.991 1843 717.291C1842.88 717.671 1842.75 718.054 1842.62 718.44H1892.36C1888.98 722.671 1878.39 731.133 1863.04 731.133C1856.47 731.133 1851.62 729.582 1848.14 727.477C1845.98 727.833 1843.91 728.289 1842.12 728.873C1840.02 729.554 1837.81 730.568 1835.68 731.694C1835.28 732.234 1834.88 732.752 1834.48 733.248H1862.3C1860.64 740.065 1851.34 753.699 1827.42 753.699C1803.5 753.699 1787.01 740.065 1781.75 733.248H1817.75C1817.83 732.925 1817.91 732.59 1818 732.24C1814.7 732.497 1809.58 732.731 1806.02 732.115C1804.52 731.856 1802.99 731.394 1801.51 730.828C1799.7 731.024 1797.73 731.133 1795.59 731.133C1779.53 731.133 1768.45 725.021 1764.91 721.965H1819.02C1818.15 724.351 1814.15 728.598 1804.8 730.347C1805.36 730.463 1805.92 730.56 1806.47 730.634C1810.05 731.118 1815.08 730.863 1818.43 730.594C1819.1 727.912 1819.94 724.227 1820.56 718.089C1815.28 719.122 1808.17 720.248 1803.41 719.961C1799.55 719.729 1795.82 718.486 1792.67 717.029C1792.63 717.029 1792.59 717.029 1792.55 717.029C1768.64 717.029 1752.14 709.977 1746.88 706.451H1821.58C1821.73 704.483 1821.82 702.764 1821.8 701.16C1815.62 701.757 1808.72 702.098 1803.54 701.452C1801.59 701.209 1799.64 700.796 1797.71 700.262C1790.98 701.459 1782.76 702.22 1772.81 702.22C1737.83 702.22 1713.69 692.818 1706 688.117H1818.3C1817.97 687.442 1817.61 686.739 1817.21 686.001C1813.11 678.302 1822.26 665.732 1832.43 656.246C1809.57 650.116 1798.44 639.022 1786.88 627.498C1775.95 616.61 1764.64 605.337 1742.69 597.504C1697.74 581.466 1655.31 584.373 1611.25 587.393C1574.15 589.935 1535.9 592.556 1493.99 584.017C1469.55 579.037 1449.81 575.738 1430.34 572.485L1430.34 572.485C1408.69 568.867 1387.38 565.307 1360.34 559.553C1330.56 553.219 1307.26 543.25 1285.22 533.816C1250.06 518.771 1218.09 505.086 1168.06 509.684C1142.9 511.996 1126.78 517.852 1109.37 524.173C1097.96 528.319 1085.99 532.666 1070.56 536.344C1021.14 548.12 983.33 553.566 942.007 559.517C916.967 563.123 890.639 566.914 859.66 572.413C790.445 584.697 734.292 599.68 680.98 613.905C593.213 637.324 513.147 658.688 395.182 662.574C395.352 668.922 391.4 677.404 387.794 685.142C386.015 688.961 384.32 692.599 383.246 695.71C382.329 698.366 381.453 700.606 380.652 702.654C378.678 707.701 377.163 711.574 376.636 717.606C378.604 717.8 382.604 718.066 388.329 717.824C385.786 714.662 384.366 711.499 383.806 709.128H465C459.699 716.221 443.069 730.408 418.962 730.408C405.869 730.408 397.121 726.223 391.593 721.262C386.561 721.96 381.372 722.271 376.439 721.874C376.422 723.479 376.462 725.231 376.564 727.166C376.882 733.211 377.511 737.23 378.167 740.16L386.312 737.224C384.936 735.518 384.142 733.853 383.806 732.57H438.628C435.048 736.893 423.82 745.538 407.543 745.538C398.459 745.538 392.473 742.845 388.76 739.714C385.146 741.01 381.334 742.585 379.05 743.554C379.16 743.933 379.268 744.291 379.371 744.634C379.95 746.562 380.38 747.993 380.38 749.861L424.922 749.861C420.448 754.904 406.413 764.99 386.067 764.99C365.721 764.99 357.808 754.904 356.395 749.861H373.202C371.164 746.507 368.613 741.52 366.787 735.244C364.298 735.282 361.473 735.436 359.298 735.862C358.105 736.096 356.874 736.457 355.659 736.893H366.674C365.685 741.215 360.147 749.861 345.904 749.861C331.662 749.861 321.837 741.215 318.705 736.893H350.684C352.155 735.791 353.805 734.774 355.514 734.12C358.348 733.038 362.448 732.533 366.011 732.302C365.685 730.93 365.401 729.539 365.156 728.142C361.326 727.897 357.618 727.245 354.201 726.399C350.348 729.891 344.775 732.57 336.992 732.57C320.24 732.57 308.684 720.156 305 713.949H361.423C360.988 716.266 359.808 719.449 357.627 722.528C357.724 722.534 357.821 722.541 357.917 722.546C357.981 722.55 358.045 722.554 358.108 722.558C359.994 722.667 362.219 722.707 364.383 722.711C362.824 708.742 364.453 695.71 364.453 695.71C364.453 695.71 370.654 678.284 366.124 667.729C365.448 666.155 364.371 664.356 363.224 662.642C357.832 662.489 352.563 662.284 347.446 662.084L347.444 662.084L347.442 662.084C329.438 661.382 313.319 660.753 300.371 662.742C282.404 665.502 257.452 676.006 235.733 688.461C212.851 701.583 206.136 723.444 200.426 742.033C194.71 760.64 190.002 775.968 171.094 775.968C155.036 775.968 148.12 767.331 140.845 758.245C136.312 752.585 131.641 746.751 124.532 742.721C112.372 735.828 109.323 728.138 106.713 721.555C102.916 711.978 100.048 704.743 71.3972 705.711C50.8587 706.405 41.7869 714.366 31.6942 723.222C25.8246 728.373 19.6096 733.827 10.5931 738.33ZM1799.47 716.817C1809.74 716.163 1816.69 714.079 1821.12 711.807C1821.02 712.887 1820.92 714.037 1820.82 715.266C1820.82 715.336 1820.81 715.405 1820.8 715.474C1815.68 716.458 1809.37 717.439 1804.88 717.365C1803.09 717.336 1801.26 717.132 1799.47 716.817ZM1820.06 692.078C1820.82 694.056 1821.28 695.827 1821.54 697.617C1816.51 698.095 1811.17 698.396 1806.7 698.183C1812.94 696.352 1817.27 694.139 1820.06 692.078ZM1845.7 725.751C1843.83 724.196 1842.53 722.509 1841.7 720.986C1840.8 723.276 1839.73 725.402 1838.58 727.346C1839.24 727.103 1839.91 726.887 1840.56 726.705C1842.13 726.269 1843.87 725.961 1845.7 725.751ZM1849.9 708.098C1848.13 708.88 1846.37 709.78 1844.65 710.741C1845.17 707.969 1845.43 705.381 1845.51 702.963C1846.46 704.588 1847.89 706.383 1849.9 708.098Z" fill="url(#paint1_linear_48_680)"/>
</g>
<defs>
<filter id="filter0_if_48_680" x="-145.5" y="475" width="2213" height="382" filterUnits="userSpaceOnUse" color-interpolation-filters="sRGB">
<feFlood flood-opacity="0" result="BackgroundImageFix"/>
<feBlend mode="normal" in="SourceGraphic" in2="BackgroundImageFix" result="shape"/>
<feColorMatrix in="SourceAlpha" type="matrix" values="0 0 0 0 0 0 0 0 0 0 0 0 0 0 0 0 0 0 127 0" result="hardAlpha"/>
<feOffset dy="69"/>
<feGaussianBlur stdDeviation="27.5"/>
<feComposite in2="hardAlpha" operator="arithmetic" k2="-1" k3="1"/>
<feColorMatrix type="matrix" values="0 0 0 0 1 0 0 0 0 1 0 0 0 0 1 0 0 0 0.25 0"/>
<feBlend mode="normal" in2="shape" result="effect1_innerShadow_48_680"/>
<feGaussianBlur stdDeviation="3" result="effect2_foregroundBlur_48_680"/>
</filter>
<linearGradient id="paint0_linear_48_680" x1="961" y1="0" x2="961" y2="500" gradientUnits="userSpaceOnUse">
<stop/>
<stop offset="1" stop-color="#8A8A8A"/>
</linearGradient>
<linearGradient id="paint1_linear_48_680" x1="961" y1="802" x2="961" y2="481" gradientUnits="userSpaceOnUse">
<stop stop-color="white" stop-opacity="0.34"/>
<stop offset="1" stop-color="#5F5F5F"/>
</linearGradient>
</defs>
</svg>
