<svg width="1920" height="788" viewBox="0 0 1920 788" fill="none" xmlns="http://www.w3.org/2000/svg">
<path d="M1794.39 166.416C1916.05 230.822 1856.12 58.116 2019 74.8949V788H-64V241.731C-24.2573 243.377 136.624 218.097 240.146 152.593C293.843 118.616 312.181 61.0713 362.705 47.2477C420.802 31.3522 404.888 171.293 450.247 241.731C516.225 344.189 587.238 429.31 673.354 464.338C765.219 501.705 802.12 221.072 883.455 341.832C904.965 373.77 938.473 385.901 968.996 399.987C1025.67 426.138 1072.96 387.555 1129.57 413.81C1204.61 448.608 1208.36 358.926 1245.63 312.279C1286.01 261.739 1285.15 138.769 1321.16 166.416C1357.18 194.063 1362.12 220.287 1399.2 241.731C1424.54 256.383 1442.93 273.134 1469.74 268.425C1540.27 256.031 1526.7 381.011 1600.8 368.05C1704.35 349.936 1681.84 106.832 1794.39 166.416Z" fill="url(#paint0_linear_38_436)"/>
<path d="M355.587 51C356.174 48.7222 358.619 44.1 363.697 43.8333C365.899 43.7177 367.053 43.6814 367.582 43.6866C368.702 42.7282 370.797 39.9364 371.63 38.8333C372.512 37.6667 374.627 35.6667 374.451 32C374.275 28.3333 373.393 23.1667 375.156 15.6667C376.566 9.66666 379.564 5.99999 379.564 5.99999C379.564 5.99999 382.384 5.66664 382.384 7.83333C382.384 10 381.679 11.1667 381.327 18.1667C380.974 25.1667 380.621 26.6667 382.384 32C384.147 37.3333 377.565 47.6111 373.922 51H355.587Z" fill="#9C9C9C"/>
<path d="M370.754 20.7138C374.36 18.5551 378.578 12.6667 378.578 12.6667L379.387 14.598C379.387 14.598 375.202 20.4393 371.564 22.3232C367.157 24.6053 359.289 23.2889 359.289 23.2889C359.289 23.2889 366.682 23.1521 370.754 20.7138Z" fill="#9C9C9C"/>
<path d="M385.971 26.2942C382.311 25.8006 376.028 27.611 376.028 27.611L376.645 25.7846C376.645 25.7846 382.878 23.9893 386.396 24.6964C390.657 25.553 395.055 30.9104 395.055 30.9104C395.055 30.9104 390.104 26.8518 385.971 26.2942Z" fill="#9C9C9C"/>
<path d="M375.081 11.7347C377.428 10.5042 380.287 6.97513 380.287 6.97513L380.732 8.20004C380.732 8.20004 377.895 11.7009 375.537 12.7596C372.681 14.0422 367.764 12.9823 367.764 12.9823C367.764 12.9823 372.431 13.1246 375.081 11.7347Z" fill="#9C9C9C"/>
<path d="M403.012 22.3333H379.387C379.874 20.6667 382.602 17.3333 389.616 17.3333C396.631 17.3333 401.469 20.6667 403.012 22.3333Z" fill="#9C9C9C"/>
<path d="M354 25.3333H374.451C374.029 22.8889 371.668 18 365.596 18C359.524 18 355.335 22.8889 354 25.3333Z" fill="#9C9C9C"/>
<path d="M360.347 16.6667H375.509C375.196 14.6667 373.445 10.6667 368.944 10.6667C364.442 10.6667 361.337 14.6667 360.347 16.6667Z" fill="#9C9C9C"/>
<path d="M397.723 15H381.855C382.183 13.5556 384.015 10.6667 388.726 10.6667C393.437 10.6667 396.687 13.5556 397.723 15Z" fill="#9C9C9C"/>
<path d="M392.786 9.66667H369.162C369.649 6.44445 372.377 0 379.391 0C386.405 0 391.244 6.44445 392.786 9.66667Z" fill="#9C9C9C"/>
<path d="M415 31H380.445C381.158 28.7778 385.147 24.3333 395.407 24.3333C405.667 24.3333 412.744 28.7778 415 31Z" fill="#9C9C9C"/>
<path d="M385.536 10.9024C383.823 10.5301 380.989 11.0842 380.989 11.0842L381.2 10.2896C381.2 10.2896 384.012 9.74028 385.668 10.2026C387.674 10.7626 389.926 13.349 389.926 13.349C389.926 13.349 387.471 11.3229 385.536 10.9024Z" fill="#9C9C9C"/>
<path d="M386 17.1744C383.409 17.1056 378.747 18.9707 378.747 18.9707L379.337 17.5574C379.337 17.5574 383.962 15.7076 386.434 15.9473C389.428 16.2377 392.16 19.8753 392.16 19.8753C392.16 19.8753 388.927 17.2521 386 17.1744Z" fill="#9C9C9C"/>
<path d="M1761.45 141.266C1762.1 145.631 1761.71 150.773 1761.71 150.773C1761.71 150.773 1760.74 155.243 1761.45 157.951C1761.78 159.2 1762.7 161 1762.7 161H1757.35C1756 159.028 1758.12 153.877 1758.77 150.773C1759.43 147.668 1759.95 146.777 1759.82 142.703C1759.69 138.629 1759.22 138.142 1759.22 136.881C1759.22 135.62 1759.82 135.639 1759.82 135.639C1759.82 135.639 1760.93 137.773 1761.45 141.266Z" fill="#A7A7A7"/>
<path d="M1757.62 139.653C1758.57 139.131 1759.76 138.267 1759.76 138.267L1760.02 139.099L1758.15 140.208C1756.28 141.317 1754.67 140.485 1754.67 140.485C1754.67 140.485 1756.38 140.335 1757.62 139.653Z" fill="#A7A7A7"/>
<path d="M1762.52 140.472C1761.74 140.722 1760.43 140.607 1760.43 140.607L1760.31 141.429C1760.31 141.429 1762.16 141.513 1763.11 140.919C1763.99 140.365 1764.77 138.788 1764.77 138.788C1764.77 138.788 1763.56 140.138 1762.52 140.472Z" fill="#A7A7A7"/>
<path d="M1750.12 141.317H1758.69C1758.51 140.208 1757.52 137.99 1754.98 137.99C1752.43 137.99 1750.68 140.208 1750.12 141.317Z" fill="#A7A7A7"/>
<path d="M1771 146.094H1762.18C1762.37 144.501 1763.38 141.317 1766 141.317C1768.62 141.317 1770.42 144.501 1771 146.094Z" fill="#A7A7A7"/>
<path d="M1768.86 140.208H1761.36C1761.52 139.099 1762.38 136.881 1764.61 136.881C1766.83 136.881 1768.37 139.099 1768.86 140.208Z" fill="#A7A7A7"/>
<path d="M1752.26 136.881H1762.97C1762.75 135.587 1761.51 133 1758.33 133C1755.15 133 1752.96 135.587 1752.26 136.881Z" fill="#A7A7A7"/>
<path d="M1746 147.331H1758.69C1758.42 145.511 1756.96 141.871 1753.19 141.871C1749.43 141.871 1746.83 145.511 1746 147.331Z" fill="#A7A7A7"/>
<path d="M1766.18 144.717C1766.18 144.717 1763.24 141.945 1760.29 142.499V143.885C1760.29 143.885 1761.76 143.796 1762.7 143.885C1764.09 144.017 1766.18 144.717 1766.18 144.717Z" fill="#A7A7A7"/>
<path d="M1752.8 146.307C1752.8 146.307 1756.81 143.535 1760.03 144.089V145.198C1760.03 145.198 1758.95 144.921 1757.08 145.198C1755.21 145.475 1752.8 146.307 1752.8 146.307Z" fill="#A7A7A7"/>
<defs>
<linearGradient id="paint0_linear_38_436" x1="977.5" y1="-21.9613" x2="977.5" y2="787.999" gradientUnits="userSpaceOnUse">
<stop stop-color="#999999"/>
<stop offset="0.307292" stop-color="#B0B0B0"/>
<stop offset="0.859375" stop-color="white"/>
</linearGradient>
</defs>
</svg>
