<svg width="1920" height="797" viewBox="0 0 1920 797" fill="none" xmlns="http://www.w3.org/2000/svg">
<path d="M153 79.5025C90 82.2057 22.5 10.3624 -52 0V797H2098C2067.5 760.957 1991 691.394 1929 701.486C1851.5 714.101 1750.61 582.976 1640 502.799C1579.38 458.863 1589.74 377.754 1520.5 372.822C1488.52 370.544 1470.91 381.67 1441 393.068C1401.5 408.118 1389.22 449.541 1347 446.399C1309.57 443.613 1298.51 413.955 1267.5 393.068C1229.56 367.509 1202.97 359.473 1170.5 327.392C1138.34 295.613 1135.02 235.442 1104.5 232.582C1074.52 229.773 1077.79 271.084 1048.5 284.925C1005.88 305.065 995.96 336.32 959 339.737C930.177 342.402 911.242 299.725 884 270.773C844.853 229.168 835.473 170.767 795.5 154.534C752.045 136.888 759.655 248.755 715.5 232.582C668.513 215.372 668.496 351.41 620.5 339.737C583.224 330.671 534.099 202.292 509 182.918C476.69 157.978 465 171.844 427.5 117.525C406.997 87.8277 393.5 67.6512 360 54.0644C292.013 26.4907 216 76.7993 153 79.5025Z" fill="url(#paint0_linear_38_407)"/>
<path d="M1518.6 374C1518.82 373.151 1519.74 371.429 1521.66 371.33C1522.49 371.287 1522.92 371.273 1523.12 371.275C1523.54 370.918 1524.33 369.878 1524.65 369.467C1524.98 369.033 1525.78 368.288 1525.71 366.922C1525.64 365.556 1525.31 363.631 1525.98 360.837C1526.51 358.601 1527.64 357.235 1527.64 357.235C1527.64 357.235 1528.7 357.111 1528.7 357.918C1528.7 358.726 1528.44 359.16 1528.3 361.768C1528.17 364.376 1528.04 364.935 1528.7 366.922C1529.37 368.909 1526.89 372.737 1525.51 374H1518.6Z" fill="#D5D4D4"/>
<path d="M1524.32 362.717C1525.68 361.913 1527.27 359.719 1527.27 359.719L1527.57 360.438C1527.57 360.438 1525.99 362.615 1524.62 363.316C1522.96 364.167 1519.99 363.676 1519.99 363.676C1519.99 363.676 1522.78 363.625 1524.32 362.717Z" fill="#D5D4D4"/>
<path d="M1530.05 364.796C1528.67 364.612 1526.31 365.286 1526.31 365.286L1526.54 364.606C1526.54 364.606 1528.89 363.937 1530.21 364.201C1531.82 364.52 1533.48 366.516 1533.48 366.516C1533.48 366.516 1531.61 365.004 1530.05 364.796Z" fill="#D5D4D4"/>
<path d="M1525.95 359.372C1526.83 358.913 1527.91 357.599 1527.91 357.599L1528.08 358.055C1528.08 358.055 1527.01 359.359 1526.12 359.754C1525.04 360.231 1523.19 359.837 1523.19 359.837C1523.19 359.837 1524.95 359.89 1525.95 359.372Z" fill="#D5D4D4"/>
<path d="M1536.48 363.32H1527.57C1527.76 362.699 1528.78 361.458 1531.43 361.458C1534.07 361.458 1535.9 362.699 1536.48 363.32Z" fill="#D5D4D4"/>
<path d="M1518 364.438H1525.71C1525.55 363.527 1524.66 361.706 1522.37 361.706C1520.08 361.706 1518.5 363.527 1518 364.438Z" fill="#D5D4D4"/>
<path d="M1520.39 361.209H1526.11C1525.99 360.464 1525.33 358.974 1523.63 358.974C1521.94 358.974 1520.77 360.464 1520.39 361.209Z" fill="#D5D4D4"/>
<path d="M1534.49 360.588H1528.5C1528.63 360.05 1529.32 358.974 1531.09 358.974C1532.87 358.974 1534.09 360.05 1534.49 360.588Z" fill="#D5D4D4"/>
<path d="M1532.62 358.601H1523.72C1523.9 357.401 1524.93 355 1527.57 355C1530.22 355 1532.04 357.401 1532.62 358.601Z" fill="#D5D4D4"/>
<path d="M1541 366.549H1527.97C1528.24 365.721 1529.74 364.065 1533.61 364.065C1537.48 364.065 1540.15 365.721 1541 366.549Z" fill="#D5D4D4"/>
<path d="M1529.89 359.062C1529.24 358.923 1528.18 359.129 1528.18 359.129L1528.26 358.833C1528.26 358.833 1529.32 358.629 1529.94 358.801C1530.7 359.01 1531.55 359.973 1531.55 359.973C1531.55 359.973 1530.62 359.218 1529.89 359.062Z" fill="#D5D4D4"/>
<path d="M1530.07 361.398C1529.09 361.373 1527.33 362.068 1527.33 362.068L1527.55 361.541C1527.55 361.541 1529.3 360.852 1530.23 360.941C1531.36 361.049 1532.39 362.405 1532.39 362.405C1532.39 362.405 1531.17 361.427 1530.07 361.398Z" fill="#D5D4D4"/>
<path d="M709.18 227.247C709.441 228.962 709.284 230.982 709.284 230.982C709.284 230.982 708.897 232.738 709.18 233.802C709.31 234.293 709.681 235 709.681 235H707.539C707 234.225 707.849 232.202 708.11 230.982C708.371 229.763 708.579 229.413 708.527 227.812C708.475 226.211 708.289 226.02 708.289 225.525C708.289 225.029 708.527 225.037 708.527 225.037C708.527 225.037 708.971 225.875 709.18 227.247Z" fill="#CFCFCF"/>
<path d="M707.646 226.614C708.027 226.408 708.503 226.069 708.503 226.069L708.61 226.396L707.86 226.832C707.111 227.267 706.469 226.941 706.469 226.941C706.469 226.941 707.151 226.882 707.646 226.614Z" fill="#CFCFCF"/>
<path d="M709.606 226.936C709.296 227.034 708.773 226.989 708.773 226.989L708.724 227.311C708.724 227.311 709.464 227.344 709.843 227.111C710.196 226.893 710.51 226.274 710.51 226.274C710.51 226.274 710.022 226.804 709.606 226.936Z" fill="#CFCFCF"/>
<path d="M704.648 227.267H708.075C708.004 226.832 707.608 225.96 706.591 225.96C705.574 225.96 704.872 226.832 704.648 227.267Z" fill="#CFCFCF"/>
<path d="M713 229.144H709.474C709.546 228.518 709.953 227.267 711 227.267C712.048 227.267 712.77 228.518 713 229.144Z" fill="#CFCFCF"/>
<path d="M712.143 226.832H709.145C709.207 226.396 709.553 225.525 710.443 225.525C711.334 225.525 711.948 226.396 712.143 226.832Z" fill="#CFCFCF"/>
<path d="M705.505 225.525H709.788C709.699 225.016 709.205 224 707.933 224C706.662 224 705.784 225.016 705.505 225.525Z" fill="#CFCFCF"/>
<path d="M703 229.63H708.075C707.97 228.915 707.384 227.485 705.877 227.485C704.371 227.485 703.331 228.915 703 229.63Z" fill="#CFCFCF"/>
<path d="M711.073 228.603C711.073 228.603 709.895 227.514 708.717 227.732V228.276C708.717 228.276 709.306 228.241 709.681 228.276C710.236 228.328 711.073 228.603 711.073 228.603Z" fill="#CFCFCF"/>
<path d="M705.719 229.228C705.719 229.228 707.325 228.139 708.61 228.356V228.792C708.61 228.792 708.182 228.683 707.432 228.792C706.683 228.901 705.719 229.228 705.719 229.228Z" fill="#CFCFCF"/>
<path d="M486.348 160.723C485.983 163.218 486.202 166.156 486.202 166.156C486.202 166.156 486.745 168.71 486.348 170.257C486.165 170.971 485.647 172 485.647 172H488.645C489.4 170.873 488.212 167.93 487.846 166.156C487.481 164.382 487.189 163.873 487.262 161.545C487.335 159.216 487.596 158.938 487.596 158.218C487.596 157.497 487.262 157.508 487.262 157.508C487.262 157.508 486.641 158.728 486.348 160.723Z" fill="#CFCFCF"/>
<path d="M488.495 159.802C487.963 159.503 487.296 159.01 487.296 159.01L487.146 159.485L488.195 160.119C489.245 160.752 490.144 160.277 490.144 160.277C490.144 160.277 489.189 160.191 488.495 159.802Z" fill="#CFCFCF"/>
<path d="M485.751 160.27C486.186 160.412 486.917 160.347 486.917 160.347L486.987 160.817C486.987 160.817 485.95 160.864 485.42 160.525C484.925 160.208 484.487 159.307 484.487 159.307C484.487 159.307 485.169 160.079 485.751 160.27Z" fill="#CFCFCF"/>
<path d="M492.692 160.752H487.896C487.994 160.119 488.548 158.851 489.973 158.851C491.397 158.851 492.379 160.119 492.692 160.752Z" fill="#CFCFCF"/>
<path d="M481 163.482H485.937C485.835 162.572 485.265 160.752 483.799 160.752C482.333 160.752 481.322 162.572 481 163.482Z" fill="#CFCFCF"/>
<path d="M482.199 160.119H486.396C486.31 159.485 485.825 158.218 484.579 158.218C483.333 158.218 482.473 159.485 482.199 160.119Z" fill="#CFCFCF"/>
<path d="M491.493 158.218H485.497C485.621 157.479 486.313 156 488.093 156C489.874 156 491.102 157.479 491.493 158.218Z" fill="#CFCFCF"/>
<path d="M495 164.189H487.896C488.042 163.149 488.862 161.069 490.972 161.069C493.081 161.069 494.536 163.149 495 164.189Z" fill="#CFCFCF"/>
<path d="M483.698 162.695C483.698 162.695 485.347 161.111 486.996 161.428V162.22C486.996 162.22 486.172 162.169 485.647 162.22C484.869 162.295 483.698 162.695 483.698 162.695Z" fill="#CFCFCF"/>
<path d="M491.193 163.604C491.193 163.604 488.945 162.02 487.146 162.337V162.97C487.146 162.97 487.746 162.812 488.795 162.97C489.844 163.129 491.193 163.604 491.193 163.604Z" fill="#CFCFCF"/>
<defs>
<linearGradient id="paint0_linear_38_407" x1="1023" y1="0" x2="1023" y2="797" gradientUnits="userSpaceOnUse">
<stop stop-color="#C2C2C2"/>
<stop offset="0.447917" stop-color="#DDDBDB"/>
<stop offset="1" stop-color="white"/>
</linearGradient>
</defs>
</svg>
