<svg width="1920" height="742" viewBox="0 0 1920 742" fill="none" xmlns="http://www.w3.org/2000/svg">
<path d="M-49.5 2.46889C-106.101 -13.9787 -125.831 57.5689 -167 45.9689V741.969H1979.5V540.5C1978.5 545 1966.7 544.2 1927.5 505C1878.5 456 1857.5 470 1822.5 505C1787.5 540 1767 504.5 1741.5 505C1716 505.5 1691 507 1636 562C1592 606 1575.28 592.333 1572.42 580C1563.19 535.289 1542.98 471.822 1504 486.142C1494.55 489.614 1478 442.289 1462.5 445.969C1432.73 453.036 1402.4 505.293 1386 486.142C1366.04 462.832 1356 425.469 1318.5 445.969C1291.08 460.956 1279.72 406.363 1249.5 405.469C1221.13 404.629 1209.52 346.87 1173 350.769C1159.09 352.254 1154.34 363.469 1139.5 363.469C1117 363.469 1114.78 320.124 1091.5 325.469C1068.22 330.814 1058.8 347.846 1049.54 370.569C1038.33 398.105 1043.26 416.785 1037 445.969C1028.63 484.982 1033.68 531.939 996 527.969C975.013 525.758 966.231 497.796 954 493.969C941.769 490.142 934.411 445.969 916 445.969C897.589 445.969 895.484 475.796 895.484 475.796C895.484 475.796 888.838 506.692 874.018 515.769C844.69 533.731 822.937 462.367 804 432.969C780.46 396.424 759.554 405.713 725 370.569C697.068 342.16 691.236 277.626 672.5 271.469C653.764 265.312 637.648 292.688 619.5 284.969C596.964 275.383 583.5 221.969 583.5 221.969C583.5 221.969 579.705 182.105 561 170.969C548 163.23 521.583 211.187 493 232.969C462.446 256.253 447.736 288.677 409.5 284.969C368.257 280.97 357.749 222.604 336.5 207.969C306.493 187.301 290.395 196.722 265 184.469C240.897 172.839 232.587 131.357 210.5 146.469C201 152.969 172.956 190.292 140 193.634C78.723 199.848 94.0914 44.8757 49.5 64.4689C16.5 78.9689 -13.2278 13.0091 -49.5 2.46889Z" fill="url(#paint0_linear_38_445)"/>
<path d="M242.214 80.505H221.335C221.335 81.925 221.133 83.0136 220.862 84.4797C220.813 84.7402 220.763 85.0126 220.711 85.3009C221.782 86.038 223.569 87.2357 225.263 88.2211C227.003 85.8399 229.809 83.7921 234.067 83.7921C241.697 83.7921 246.96 90.3663 248.638 93.6535H222.94C223.098 92.6775 223.47 91.4117 224.115 90.1142L220.297 87.8817C219.99 90.11 219.695 93.1659 219.546 97.7624C219.498 99.2344 219.48 100.566 219.487 101.787C221.799 101.485 224.232 101.721 226.591 102.252C229.182 98.4796 233.282 95.297 239.42 95.297C250.72 95.297 258.515 106.086 261 111.48H222.94C223.203 109.677 223.868 107.271 225.061 104.867C222.377 104.683 220.502 104.885 219.58 105.032C219.826 109.619 220.537 112.565 221.462 116.403C221.838 117.96 222.248 119.663 222.678 121.683C223.181 124.049 223.976 126.815 224.81 129.719C227.221 138.112 229.962 147.656 226.956 152H210.895C210.895 152 213.672 146.663 214.652 142.96C216.776 134.934 213.869 121.683 213.869 121.683C213.869 121.683 213.105 111.773 213.836 101.15C212.821 101.153 211.779 101.184 210.895 101.267C210.82 101.274 210.745 101.281 210.669 101.289C211.691 103.631 212.245 106.051 212.448 107.813H186C187.727 103.093 193.144 93.6535 200.996 93.6535C204.644 93.6535 207.257 95.6907 209.063 98.3456C210.665 97.7027 212.403 97.207 214.198 97.0207C214.313 95.9583 214.446 94.9007 214.599 93.8568C212.929 93.6814 211.007 93.2975 209.679 92.4742C208.878 91.9776 208.104 91.204 207.414 90.3663H192.424C193.892 87.0792 198.498 80.505 205.174 80.505C211.85 80.505 214.446 87.0792 214.91 90.3663H209.747C210.316 90.6974 210.893 90.972 211.452 91.1497C212.472 91.4736 213.796 91.5907 214.963 91.62C215.819 86.8476 217.015 83.0552 217.97 80.505H210.092C210.754 76.67 214.463 69 224 69C233.537 69 240.116 76.67 242.214 80.505Z" fill="#565656"/>
<path d="M679.728 234.931H667.201C667.201 235.786 667.08 236.442 666.917 237.325C666.888 237.482 666.858 237.646 666.827 237.82C667.469 238.264 668.541 238.985 669.558 239.579C670.602 238.144 672.285 236.911 674.84 236.911C679.418 236.911 682.576 240.871 683.583 242.851H668.164C668.259 242.264 668.482 241.501 668.869 240.719L666.578 239.375C666.394 240.717 666.217 242.558 666.128 245.327C666.099 246.213 666.088 247.016 666.092 247.751C667.48 247.569 668.939 247.712 670.354 248.031C671.909 245.759 674.369 243.842 678.052 243.842C684.832 243.842 689.509 250.341 691 253.59H668.164C668.322 252.504 668.721 251.055 669.436 249.606C667.826 249.495 666.701 249.617 666.148 249.706C666.296 252.47 666.722 254.244 667.277 256.556C667.503 257.494 667.749 258.52 668.007 259.737C668.309 261.162 668.786 262.828 669.286 264.578C670.732 269.634 672.377 275.383 670.574 278H660.937C660.937 278 662.603 274.785 663.191 272.554C664.465 267.719 662.721 259.737 662.721 259.737C662.721 259.737 662.263 253.767 662.701 247.368C662.093 247.37 661.467 247.388 660.937 247.438C660.892 247.442 660.847 247.447 660.801 247.452C661.415 248.862 661.747 250.32 661.869 251.382H646C647.036 248.538 650.286 242.851 654.998 242.851C657.187 242.851 658.754 244.079 659.838 245.678C660.799 245.291 661.842 244.992 662.919 244.88C662.988 244.24 663.068 243.603 663.159 242.974C662.157 242.868 661.004 242.637 660.207 242.141C659.727 241.842 659.262 241.376 658.849 240.871H649.855C650.735 238.891 653.499 234.931 657.504 234.931C661.51 234.931 663.068 238.891 663.346 240.871H660.248C660.59 241.071 660.936 241.236 661.271 241.343C661.883 241.538 662.678 241.609 663.378 241.627C663.891 238.752 664.609 236.467 665.182 234.931H660.455C660.852 232.62 663.078 228 668.8 228C674.523 228 678.47 232.62 679.728 234.931Z" fill="#636363"/>
<path d="M1478.48 407.624H1464.56C1464.56 408.565 1464.42 409.286 1464.24 410.258C1464.21 410.43 1464.18 410.611 1464.14 410.802C1464.85 411.29 1466.05 412.084 1467.18 412.737C1468.34 411.159 1470.21 409.802 1473.04 409.802C1478.13 409.802 1481.64 414.158 1482.76 416.337H1465.63C1465.73 415.69 1465.98 414.851 1466.41 413.991L1463.86 412.512C1463.66 413.989 1463.46 416.014 1463.36 419.059C1463.33 420.035 1463.32 420.917 1463.32 421.726C1464.87 421.526 1466.49 421.683 1468.06 422.034C1469.79 419.535 1472.52 417.426 1476.61 417.426C1484.15 417.426 1489.34 424.575 1491 428.149H1465.63C1465.8 426.954 1466.25 425.36 1467.04 423.767C1465.25 423.645 1464 423.779 1463.39 423.877C1463.55 426.917 1464.02 428.868 1464.64 431.411C1464.89 432.443 1465.17 433.572 1465.45 434.911C1465.79 436.478 1466.32 438.311 1466.87 440.236C1468.48 445.797 1470.31 452.121 1468.3 455H1457.6C1457.6 455 1459.45 451.464 1460.1 449.01C1461.52 443.691 1459.58 434.911 1459.58 434.911C1459.58 434.911 1459.07 428.344 1459.56 421.304C1458.88 421.307 1458.19 421.327 1457.6 421.382C1457.55 421.386 1457.5 421.391 1457.45 421.397C1458.13 422.948 1458.5 424.552 1458.63 425.72H1441C1442.15 422.592 1445.76 416.337 1451 416.337C1453.43 416.337 1455.17 417.687 1456.38 419.446C1457.44 419.02 1458.6 418.691 1459.8 418.568C1459.88 417.864 1459.96 417.163 1460.07 416.471C1458.95 416.355 1457.67 416.101 1456.79 415.555C1456.25 415.226 1455.74 414.714 1455.28 414.158H1445.28C1446.26 411.98 1449.33 407.624 1453.78 407.624C1458.23 407.624 1459.96 411.98 1460.27 414.158H1456.83C1457.21 414.378 1457.6 414.56 1457.97 414.678C1458.65 414.892 1459.53 414.97 1460.31 414.989C1460.88 411.827 1461.68 409.314 1462.31 407.624H1457.06C1457.5 405.082 1459.98 400 1466.33 400C1472.69 400 1477.08 405.082 1478.48 407.624Z" fill="#7F7F7F"/>
<path fill-rule="evenodd" clip-rule="evenodd" d="M1072.39 299.203H1080.18C1080.19 299.317 1080.21 299.434 1080.23 299.558C1079.52 299.467 1078.41 299.385 1077.64 299.602C1077.32 299.693 1076.98 299.856 1076.66 300.055C1076.27 299.986 1075.85 299.948 1075.38 299.948C1071.91 299.948 1069.51 302.1 1068.75 303.176H1080.45C1080.26 302.336 1079.4 300.84 1077.37 300.224C1077.5 300.184 1077.62 300.149 1077.74 300.123C1078.51 299.953 1079.6 300.043 1080.32 300.138C1080.47 301.082 1080.65 302.38 1080.79 304.542C1079.64 304.178 1078.1 303.781 1077.07 303.882C1076.24 303.964 1075.43 304.402 1074.75 304.915C1074.74 304.915 1074.73 304.915 1074.73 304.915C1069.55 304.915 1065.98 307.399 1064.84 308.641H1081C1081.04 309.334 1081.06 309.939 1081.05 310.504C1079.72 310.294 1078.22 310.174 1077.1 310.401C1076.68 310.487 1076.26 310.632 1075.84 310.82C1074.39 310.399 1072.61 310.131 1070.45 310.131C1062.89 310.131 1057.66 313.442 1056 315.098H1080.3C1080.22 315.335 1080.15 315.583 1080.06 315.843C1078.76 319.817 1083.62 327.475 1086.3 330H1099.83C1099.4 328.303 1097.59 324.859 1093.85 324.66C1092.22 324.574 1091.37 324.547 1090.98 324.551C1090.18 323.861 1088.71 321.895 1088.06 321.022L1087.99 320.935C1087.91 320.82 1087.81 320.696 1087.7 320.559C1086.96 319.652 1085.8 318.216 1085.91 315.843C1085.94 315.37 1085.97 314.863 1086.01 314.32C1086.09 313.306 1086.18 312.165 1086.19 310.876H1101C1100.01 309.054 1096.93 305.412 1092.45 305.412C1090.49 305.412 1089.06 306.103 1088.04 307.033C1087.23 306.436 1086.39 305.633 1085.64 304.823C1085.61 304.689 1085.59 304.554 1085.56 304.418H1096.32C1095.59 302.928 1093.3 299.948 1089.98 299.948C1088.55 299.948 1087.5 300.494 1086.75 301.235C1086.28 301.11 1085.84 300.949 1085.45 300.744C1085 300.504 1084.52 300.147 1084.06 299.75C1083.97 299.56 1083.88 299.377 1083.8 299.203H1089.82C1089.46 296.802 1087.44 292 1082.27 292C1077.09 292 1073.53 296.802 1072.39 299.203ZM1076.22 304.99C1076.61 304.879 1077 304.807 1077.39 304.797C1078.36 304.771 1079.73 305.116 1080.84 305.463C1080.84 305.487 1080.84 305.511 1080.84 305.536C1080.86 305.969 1080.88 306.374 1080.9 306.754C1079.95 305.954 1078.44 305.22 1076.22 304.99ZM1080.68 313.703C1080.07 312.977 1079.14 312.198 1077.79 311.553C1078.75 311.478 1079.91 311.584 1081 311.752C1080.94 312.382 1080.84 313.006 1080.68 313.703ZM1085.36 303.522C1085.54 302.985 1085.82 302.391 1086.22 301.843C1085.83 301.769 1085.45 301.661 1085.11 301.507C1084.97 301.443 1084.83 301.367 1084.68 301.281C1084.93 301.966 1085.16 302.715 1085.36 303.522ZM1086.18 309.869C1086.16 309.018 1086.11 308.106 1086 307.13C1086.37 307.468 1086.75 307.785 1087.13 308.061C1086.7 308.665 1086.39 309.297 1086.18 309.869Z" fill="#6B6B6B"/>
<path fill-rule="evenodd" clip-rule="evenodd" d="M1854.93 448.444H1862.03C1862.04 448.546 1862.06 448.652 1862.08 448.762C1861.43 448.681 1860.42 448.608 1859.71 448.802C1859.42 448.883 1859.12 449.029 1858.83 449.207C1858.47 449.145 1858.08 449.111 1857.66 449.111C1854.49 449.111 1852.31 451.037 1851.61 452H1862.28C1862.11 451.248 1861.32 449.91 1859.47 449.359C1859.59 449.322 1859.7 449.292 1859.8 449.268C1860.51 449.116 1861.5 449.196 1862.16 449.281C1862.29 450.126 1862.46 451.287 1862.58 453.222C1861.54 452.896 1860.14 452.541 1859.2 452.632C1858.44 452.705 1857.7 453.096 1857.08 453.556C1857.08 453.556 1857.07 453.556 1857.06 453.556C1852.35 453.556 1849.09 455.778 1848.06 456.889H1862.78C1862.81 457.509 1862.83 458.051 1862.83 458.556C1861.61 458.368 1860.25 458.261 1859.23 458.464C1858.84 458.541 1858.46 458.671 1858.08 458.839C1856.75 458.462 1855.13 458.222 1853.17 458.222C1846.27 458.222 1841.52 461.185 1840 462.667H1862.14C1862.07 462.879 1862 463.101 1861.92 463.333C1860.74 466.889 1865.16 473.741 1867.61 476H1879.93C1879.54 474.481 1877.9 471.4 1874.48 471.222C1873 471.145 1872.23 471.121 1871.87 471.124C1871.14 470.507 1869.8 468.748 1869.21 467.967L1869.15 467.889C1869.07 467.787 1868.98 467.675 1868.88 467.552C1868.21 466.742 1867.15 465.457 1867.25 463.333C1867.27 462.91 1867.31 462.456 1867.35 461.97C1867.42 461.064 1867.49 460.043 1867.51 458.889H1881C1880.1 457.259 1877.29 454 1873.21 454C1871.43 454 1870.12 454.618 1869.19 455.451C1868.45 454.916 1867.69 454.198 1867 453.473C1866.98 453.353 1866.96 453.233 1866.93 453.111H1876.73C1876.07 451.778 1873.98 449.111 1870.96 449.111C1869.66 449.111 1868.7 449.6 1868.02 450.263C1867.59 450.151 1867.18 450.007 1866.83 449.823C1866.42 449.609 1865.98 449.289 1865.56 448.934C1865.48 448.764 1865.4 448.601 1865.33 448.444H1870.81C1870.48 446.296 1868.65 442 1863.93 442C1859.22 442 1855.97 446.296 1854.93 448.444ZM1858.42 453.622C1858.78 453.523 1859.14 453.459 1859.49 453.45C1860.38 453.426 1861.62 453.736 1862.63 454.046C1862.63 454.067 1862.63 454.089 1862.63 454.111C1862.65 454.499 1862.67 454.861 1862.69 455.201C1861.82 454.485 1860.45 453.828 1858.42 453.622ZM1862.48 461.418C1861.93 460.769 1861.08 460.072 1859.85 459.495C1860.73 459.428 1861.78 459.522 1862.77 459.673C1862.72 460.237 1862.63 460.795 1862.48 461.418ZM1866.75 452.309C1866.91 451.829 1867.17 451.297 1867.54 450.807C1867.18 450.741 1866.83 450.644 1866.52 450.506C1866.4 450.449 1866.26 450.381 1866.13 450.304C1866.36 450.917 1866.57 451.587 1866.75 452.309ZM1867.5 457.988C1867.48 457.226 1867.43 456.411 1867.33 455.537C1867.67 455.84 1868.02 456.124 1868.36 456.37C1867.97 456.91 1867.69 457.476 1867.5 457.988Z" fill="#8B8B8B"/>
<defs>
<linearGradient id="paint0_linear_38_445" x1="706" y1="45.9689" x2="706" y2="741.969" gradientUnits="userSpaceOnUse">
<stop stop-color="#484848"/>
<stop offset="0.53125" stop-color="#737373"/>
<stop offset="1" stop-color="#E6E6E6"/>
</linearGradient>
</defs>
</svg>
