<svg width="569" height="992" viewBox="0 0 569 992" fill="none" xmlns="http://www.w3.org/2000/svg">
<g filter="url(#filter0_di_16_7)">
<path fill-rule="evenodd" clip-rule="evenodd" d="M59.1692 943.713C59.3572 941.668 57.8511 939.857 55.8053 939.669L48.3966 938.988L49.0774 931.579C49.2654 929.533 47.7593 927.722 45.7134 927.534C43.6675 927.346 41.8566 928.852 41.6686 930.898L40.9879 938.307L33.5792 937.626C31.5333 937.438 29.7224 938.944 29.5344 940.99C29.3464 943.036 30.8525 944.847 32.8984 945.035L40.3071 945.716L39.6263 953.124C39.4383 955.17 40.9444 956.981 42.9902 957.169C45.0361 957.357 46.847 955.851 47.035 953.805L47.7158 946.397L55.1245 947.077C57.1704 947.265 58.9813 945.759 59.1692 943.713Z" fill="#A9C1ED"/>
<path fill-rule="evenodd" clip-rule="evenodd" d="M514.5 33C523.613 33 531 25.6127 531 16.5C531 7.3873 523.613 0 514.5 0C505.387 0 498 7.3873 498 16.5C498 25.6127 505.387 33 514.5 33ZM514.5 26.4C519.968 26.4 524.4 21.9676 524.4 16.5C524.4 11.0323 519.968 6.59996 514.5 6.59996C509.032 6.59996 504.6 11.0323 504.6 16.5C504.6 21.9676 509.032 26.4 514.5 26.4Z" fill="#F8C2EB"/>
<path fill-rule="evenodd" clip-rule="evenodd" d="M86.1021 618.089C114.098 611.624 131.553 583.688 125.089 555.692C118.624 527.696 90.6882 510.241 62.6919 516.705C34.6955 523.17 17.2406 551.106 23.7051 579.102C30.1697 607.098 58.1057 624.553 86.1021 618.089ZM81.42 597.812C98.2178 593.933 108.691 577.172 104.812 560.374C100.933 543.576 84.1717 533.103 67.3739 536.982C50.5761 540.861 40.1031 557.622 43.9819 574.42C47.8606 591.218 64.6222 601.691 81.42 597.812Z" fill="#F8C2EB"/>
<path fill-rule="evenodd" clip-rule="evenodd" d="M191 734C195.418 734 199 730.418 199 726C199 721.582 195.418 718 191 718C186.582 718 183 721.582 183 726C183 730.418 186.582 734 191 734ZM191 730.8C193.651 730.8 195.8 728.651 195.8 726C195.8 723.349 193.651 721.2 191 721.2C188.349 721.2 186.2 723.349 186.2 726C186.2 728.651 188.349 730.8 191 730.8Z" fill="#F8C2EB"/>
<path fill-rule="evenodd" clip-rule="evenodd" d="M353.487 447.787C358.259 442.504 357.845 434.353 352.562 429.581L333.431 412.3L350.712 393.168C355.484 387.885 355.07 379.734 349.787 374.962C344.504 370.19 336.353 370.605 331.581 375.888L314.3 395.019L295.168 377.738C289.885 372.966 281.734 373.38 276.962 378.663C272.19 383.946 272.605 392.097 277.887 396.869L297.019 414.15L279.738 433.281C274.966 438.564 275.38 446.715 280.663 451.487C285.946 456.259 294.097 455.845 298.869 450.562L316.15 431.431L335.281 448.712C340.564 453.484 348.715 453.07 353.487 447.787Z" fill="#A9C1ED"/>
<path fill-rule="evenodd" clip-rule="evenodd" d="M22.0159 297.106C23.7769 296.048 24.3467 293.763 23.2885 292.002L19.4565 285.624L25.8336 281.792C27.5946 280.734 28.1644 278.449 27.1062 276.688C26.048 274.927 23.7626 274.357 22.0016 275.415L15.6244 279.247L11.7924 272.87C10.7342 271.109 8.44883 270.539 6.68783 271.598C4.92683 272.656 4.35708 274.941 5.41526 276.702L9.24728 283.079L2.87012 286.911C1.10911 287.969 0.539367 290.255 1.59755 292.016C2.65573 293.777 4.94113 294.347 6.70214 293.288L13.0793 289.456L16.9113 295.834C17.9695 297.595 20.2549 298.164 22.0159 297.106Z" fill="#A9C1ED"/>
</g>
<defs>
<filter id="filter0_di_16_7" x="1.06561" y="0" width="567.934" height="991.185" filterUnits="userSpaceOnUse" color-interpolation-filters="sRGB">
<feFlood flood-opacity="0" result="BackgroundImageFix"/>
<feColorMatrix in="SourceAlpha" type="matrix" values="0 0 0 0 0 0 0 0 0 0 0 0 0 0 0 0 0 0 127 0" result="hardAlpha"/>
<feOffset dx="25" dy="21"/>
<feGaussianBlur stdDeviation="6.5"/>
<feComposite in2="hardAlpha" operator="out"/>
<feColorMatrix type="matrix" values="0 0 0 0 0.364583 0 0 0 0 0.441895 0 0 0 0 0.625 0 0 0 0.5 0"/>
<feBlend mode="multiply" in2="BackgroundImageFix" result="effect1_dropShadow_16_7"/>
<feBlend mode="normal" in="SourceGraphic" in2="effect1_dropShadow_16_7" result="shape"/>
<feColorMatrix in="SourceAlpha" type="matrix" values="0 0 0 0 0 0 0 0 0 0 0 0 0 0 0 0 0 0 127 0" result="hardAlpha"/>
<feOffset dx="5" dy="9"/>
<feGaussianBlur stdDeviation="2.5"/>
<feComposite in2="hardAlpha" operator="arithmetic" k2="-1" k3="1"/>
<feColorMatrix type="matrix" values="0 0 0 0 1 0 0 0 0 0.883333 0 0 0 0 0.980952 0 0 0 1 0"/>
<feBlend mode="screen" in2="shape" result="effect2_innerShadow_16_7"/>
</filter>
</defs>
</svg>
