<svg width="529" height="1096" viewBox="0 0 529 1096" fill="none" xmlns="http://www.w3.org/2000/svg">
<g filter="url(#filter0_di_16_8)">
<path fill-rule="evenodd" clip-rule="evenodd" d="M417.271 20.6164C415.307 24.9758 417.249 30.1021 421.608 32.0664L437.395 39.1796L430.281 54.9663C428.317 59.3257 430.259 64.452 434.618 66.4163C438.978 68.3806 444.104 66.439 446.068 62.0796L453.181 46.2929L468.968 53.4061C473.328 55.3704 478.454 53.4288 480.418 49.0694C482.382 44.71 480.441 39.5837 476.081 37.6194L460.295 30.5061L467.408 14.7194C469.372 10.36 467.431 5.23368 463.071 3.26941C458.712 1.30514 453.585 3.24676 451.621 7.60614L444.508 23.3929L428.721 16.2796C424.362 14.3154 419.236 16.257 417.271 20.6164Z" fill="#A9C1ED"/>
<path fill-rule="evenodd" clip-rule="evenodd" d="M137.501 1062C163.182 1062 184.001 1041.18 184.001 1015.5C184.001 989.819 163.182 969 137.501 969C111.82 969 91.001 989.819 91.001 1015.5C91.001 1041.18 111.82 1062 137.501 1062ZM137.501 1043.4C152.91 1043.4 165.401 1030.91 165.401 1015.5C165.401 1000.09 152.91 987.6 137.501 987.6C122.092 987.6 109.601 1000.09 109.601 1015.5C109.601 1030.91 122.092 1043.4 137.501 1043.4Z" fill="#F8C2EB"/>
<path fill-rule="evenodd" clip-rule="evenodd" d="M25.0001 359C38.8072 359 50.0002 347.807 50.0002 334C50.0002 320.193 38.8072 309 25.0001 309C11.1929 309 3.05176e-05 320.193 3.05176e-05 334C3.05176e-05 347.807 11.1929 359 25.0001 359ZM25 349C33.2843 349 40 342.284 40 334C40 325.716 33.2843 319 25 319C16.7157 319 9.99995 325.716 9.99995 334C9.99995 342.284 16.7157 349 25 349Z" fill="#F8C2EB"/>
<path fill-rule="evenodd" clip-rule="evenodd" d="M490.169 776.713C490.357 774.668 488.851 772.857 486.805 772.669L479.397 771.988L480.077 764.579C480.265 762.533 478.759 760.722 476.714 760.534C474.668 760.346 472.857 761.852 472.669 763.898L471.988 771.307L464.579 770.626C462.533 770.438 460.723 771.944 460.535 773.99C460.347 776.036 461.853 777.847 463.898 778.035L471.307 778.716L470.626 786.124C470.438 788.17 471.944 789.981 473.99 790.169C476.036 790.357 477.847 788.851 478.035 786.805L478.716 779.397L486.125 780.077C488.17 780.265 489.981 778.759 490.169 776.713Z" fill="#A9C1ED"/>
<path fill-rule="evenodd" clip-rule="evenodd" d="M142.102 821.089C170.098 814.624 187.553 786.688 181.089 758.692C174.624 730.695 146.688 713.241 118.692 719.705C90.6956 726.17 73.2406 754.106 79.7052 782.102C86.1697 810.098 114.106 827.553 142.102 821.089ZM137.42 800.812C154.218 796.933 164.691 780.172 160.812 763.374C156.933 746.576 140.172 736.103 123.374 739.982C106.576 743.861 96.1032 760.622 99.9819 777.42C103.861 794.218 120.622 804.691 137.42 800.812Z" fill="#F8C2EB"/>
<path fill-rule="evenodd" clip-rule="evenodd" d="M405.425 387.71C402.929 380.167 394.79 376.076 387.247 378.573L359.93 387.614L350.889 360.298C348.392 352.755 340.253 348.664 332.71 351.16C325.167 353.657 321.076 361.796 323.573 369.339L332.614 396.655L305.298 405.697C297.755 408.193 293.664 416.332 296.16 423.876C298.657 431.419 306.796 435.51 314.339 433.013L341.655 423.972L350.697 451.288C353.194 458.831 361.332 462.922 368.876 460.425C376.419 457.929 380.51 449.79 378.013 442.247L368.972 414.93L396.288 405.889C403.831 403.392 407.922 395.253 405.425 387.71Z" fill="#A9C1ED"/>
</g>
<defs>
<filter id="filter0_di_16_8" x="3.05176e-05" y="2.50299" width="528.185" height="1093.5" filterUnits="userSpaceOnUse" color-interpolation-filters="sRGB">
<feFlood flood-opacity="0" result="BackgroundImageFix"/>
<feColorMatrix in="SourceAlpha" type="matrix" values="0 0 0 0 0 0 0 0 0 0 0 0 0 0 0 0 0 0 127 0" result="hardAlpha"/>
<feOffset dx="25" dy="21"/>
<feGaussianBlur stdDeviation="6.5"/>
<feComposite in2="hardAlpha" operator="out"/>
<feColorMatrix type="matrix" values="0 0 0 0 0.364583 0 0 0 0 0.441895 0 0 0 0 0.625 0 0 0 0.5 0"/>
<feBlend mode="multiply" in2="BackgroundImageFix" result="effect1_dropShadow_16_8"/>
<feBlend mode="normal" in="SourceGraphic" in2="effect1_dropShadow_16_8" result="shape"/>
<feColorMatrix in="SourceAlpha" type="matrix" values="0 0 0 0 0 0 0 0 0 0 0 0 0 0 0 0 0 0 127 0" result="hardAlpha"/>
<feOffset dx="5" dy="9"/>
<feGaussianBlur stdDeviation="2.5"/>
<feComposite in2="hardAlpha" operator="arithmetic" k2="-1" k3="1"/>
<feColorMatrix type="matrix" values="0 0 0 0 1 0 0 0 0 0.883333 0 0 0 0 0.980952 0 0 0 1 0"/>
<feBlend mode="screen" in2="shape" result="effect2_innerShadow_16_8"/>
</filter>
</defs>
</svg>
