<svg width="406" height="933" viewBox="0 0 406 933" fill="none" xmlns="http://www.w3.org/2000/svg">
<g filter="url(#filter0_di_16_9)">
<path fill-rule="evenodd" clip-rule="evenodd" d="M289.319 412.306C283.525 410.919 277.704 414.491 276.316 420.285L271.291 441.266L250.31 436.241C244.516 434.854 238.695 438.426 237.307 444.219C235.92 450.013 239.492 455.835 245.285 457.222L266.267 462.247L261.242 483.228C259.854 489.022 263.426 494.844 269.22 496.231C275.014 497.619 280.835 494.047 282.223 488.253L287.248 467.272L308.229 472.297C314.023 473.684 319.844 470.112 321.232 464.318C322.62 458.525 319.048 452.703 313.254 451.315L292.273 446.291L297.297 425.309C298.685 419.516 295.113 413.694 289.319 412.306Z" fill="#A9C1ED"/>
<path fill-rule="evenodd" clip-rule="evenodd" d="M54 709C69.464 709 82 696.464 82 681C82 665.536 69.464 653 54 653C38.536 653 26 665.536 26 681C26 696.464 38.536 709 54 709ZM54 697.8C63.2784 697.8 70.8 690.278 70.8 681C70.8 671.722 63.2784 664.2 54 664.2C44.7216 664.2 37.2 671.722 37.2 681C37.2 690.278 44.7216 697.8 54 697.8Z" fill="#F8C2EB"/>
<path fill-rule="evenodd" clip-rule="evenodd" d="M307.001 56.0002C322.465 56.0002 335.001 43.4641 335.001 28.0002C335.001 12.5362 322.465 0.000152588 307.001 0.000152588C291.537 0.000152588 279.001 12.5362 279.001 28.0002C279.001 43.4641 291.537 56.0002 307.001 56.0002ZM307.001 44.8002C316.279 44.8002 323.801 37.2785 323.801 28.0002C323.801 18.7218 316.279 11.2002 307.001 11.2002C297.722 11.2002 290.201 18.7218 290.201 28.0002C290.201 37.2785 297.722 44.8002 307.001 44.8002Z" fill="#F8C2EB"/>
<path fill-rule="evenodd" clip-rule="evenodd" d="M8 454C12.4183 454 16 450.418 16 446C16 441.582 12.4183 438 8 438C3.58172 438 0 441.582 0 446C0 450.418 3.58172 454 8 454ZM8 450.8C10.651 450.8 12.8 448.651 12.8 446C12.8 443.349 10.651 441.2 8 441.2C5.34904 441.2 3.2 443.349 3.2 446C3.2 448.651 5.34904 450.8 8 450.8Z" fill="#F8C2EB"/>
<path fill-rule="evenodd" clip-rule="evenodd" d="M360 899C364.418 899 368 895.418 368 891C368 886.582 364.418 883 360 883C355.582 883 352 886.582 352 891C352 895.418 355.582 899 360 899ZM360 895.8C362.651 895.8 364.8 893.651 364.8 891C364.8 888.349 362.651 886.2 360 886.2C357.349 886.2 355.2 888.349 355.2 891C355.2 893.651 357.349 895.8 360 895.8Z" fill="#F8C2EB"/>
<path fill-rule="evenodd" clip-rule="evenodd" d="M277.169 225.713C277.357 223.668 275.851 221.857 273.805 221.669L266.397 220.988L267.077 213.579C267.265 211.533 265.759 209.722 263.713 209.534C261.668 209.346 259.857 210.853 259.669 212.898L258.988 220.307L251.579 219.626C249.533 219.438 247.722 220.944 247.534 222.99C247.346 225.036 248.853 226.847 250.898 227.035L258.307 227.716L257.626 235.124C257.438 237.17 258.944 238.981 260.99 239.169C263.036 239.357 264.847 237.851 265.035 235.805L265.716 228.397L273.124 229.077C275.17 229.265 276.981 227.759 277.169 225.713Z" fill="#A9C1ED"/>
<path fill-rule="evenodd" clip-rule="evenodd" d="M183.918 564.838C182.966 563.017 180.718 562.312 178.898 563.264L172.304 566.711L168.858 560.117C167.906 558.296 165.659 557.592 163.838 558.543C162.017 559.495 161.313 561.743 162.264 563.563L165.711 570.157L159.117 573.603C157.296 574.555 156.592 576.803 157.543 578.623C158.495 580.444 160.743 581.149 162.563 580.197L169.157 576.751L172.603 583.344C173.555 585.165 175.803 585.869 177.623 584.918C179.444 583.966 180.149 581.718 179.197 579.898L175.751 573.304L182.344 569.858C184.165 568.906 184.869 566.659 183.918 564.838Z" fill="#A9C1ED"/>
</g>
<defs>
<filter id="filter0_di_16_9" x="0" y="0.000152588" width="406" height="933" filterUnits="userSpaceOnUse" color-interpolation-filters="sRGB">
<feFlood flood-opacity="0" result="BackgroundImageFix"/>
<feColorMatrix in="SourceAlpha" type="matrix" values="0 0 0 0 0 0 0 0 0 0 0 0 0 0 0 0 0 0 127 0" result="hardAlpha"/>
<feOffset dx="25" dy="21"/>
<feGaussianBlur stdDeviation="6.5"/>
<feComposite in2="hardAlpha" operator="out"/>
<feColorMatrix type="matrix" values="0 0 0 0 0.364583 0 0 0 0 0.441895 0 0 0 0 0.625 0 0 0 0.5 0"/>
<feBlend mode="multiply" in2="BackgroundImageFix" result="effect1_dropShadow_16_9"/>
<feBlend mode="normal" in="SourceGraphic" in2="effect1_dropShadow_16_9" result="shape"/>
<feColorMatrix in="SourceAlpha" type="matrix" values="0 0 0 0 0 0 0 0 0 0 0 0 0 0 0 0 0 0 127 0" result="hardAlpha"/>
<feOffset dx="5" dy="9"/>
<feGaussianBlur stdDeviation="2.5"/>
<feComposite in2="hardAlpha" operator="arithmetic" k2="-1" k3="1"/>
<feColorMatrix type="matrix" values="0 0 0 0 1 0 0 0 0 0.883333 0 0 0 0 0.980952 0 0 0 1 0"/>
<feBlend mode="screen" in2="shape" result="effect2_innerShadow_16_9"/>
</filter>
</defs>
</svg>
